<?xml version="1.0" encoding="UTF-8" standalone="no"?>
<svg xmlns="http://www.w3.org/2000/svg" width="74.700005" height="95.099998">
  <path d="M102.13507 92.694243c-.00008 4.799983-2.266745 7.199981-6.800003 7.2h-61.1c-4.533338-.000019-6.800003-2.400017-6.8-7.2v-80.7c-.000003-4.7999265 2.266662-7.1999241 6.8-7.2000001h61.1c4.533258.000076 6.799923 2.4000736 6.800003 7.2000001v80.7m-1.7 0v-80.7c-.00008-3.6665943-1.700077-5.4999258-5.100003-5.5000001h-61.1c-3.400006.0000743-5.100004 1.8334058-5.1 5.5000001v80.7c-.000004 3.733318 1.699994 5.599982 5.1 5.6h61.1c3.399926-.000018 5.099923-1.866682 5.100003-5.6" font-family="Droid Serif" font-size="100" font-weight="400" style="-inkscape-font-specification:Droid Serif" transform="translate(-27.43507 -4.79424)"/>
  <path fill="#fff" d="M4.30967 92.75116c-.61979-.31407-1.42449-1.08311-1.78822-1.70899-.65578-1.12842-.66132-1.49206-.66132-43.40495 0-40.07516.0303-42.32254.58476-43.33805.32162-.58908 1.05317-1.35784 1.62566-1.70836 1.01803-.62331 1.75625-.63549 33.61396-.5546l32.57307.0827 1.00186.95991c.55103.52795 1.14802 1.50267 1.32665 2.16604.21048.78169.29447 15.89023.23866 42.93275-.0942 45.66271.0333 42.80841-1.97937 44.29841-.91469.67715-1.02937.67979-33.16334.76283-30.20635.0781-32.31674.0472-33.37237-.48769z"/>
  <path fill="#9c0000" d="M112.66017-21.724061c-1.46669 1.533389-3.83335 3.16672-7.1 4.9-3.20001 1.733384-5.733346 2.600049-7.6 2.6-.06668.000049-.166677.000049-.3 0-.06668.000049-.233344.000049-.5 0-.266676.000049-.600009.000049-1 0 .199991-.06662.89999-.366617 2.1-.9 1.266654-.533283 2.13332-.899949 2.6-1.1.46665-.266615 1.26665-.699948 2.4-1.3 1.13332-.599947 2.03332-1.099946 2.7-1.5.66665-.466612 1.43331-1.066611 2.3-1.8.86665-.733277 1.66664-1.466609 2.4-2.2-2.13335-2.266606-3.63335-3.399938-4.5-3.4l-3.8 2.2 5-5.9c1.99998-2.599932 2.99998-4.79993 3-6.6 1.39998.466738 2.53331.966737 3.4 1.5v1.1c-1.60002 1.466734-2.73336 2.700067-3.4 3.7-.00002.06673.16664.100065.5.1l6.2-1.9c.79997.000067 1.66664.8334 2.6 2.5l-6.1 6.6c-.00003.200058.39997.566724 1.2 1.1.79997.53339 1.89997 1.133389 3.3 1.8 1.46663.666721 2.86663 1.233387 4.2 1.7l8.6 2.4c-3.06671.866717-5.1667 1.30005-6.3 1.3-1.73337.00005-3.80003-.866616-6.2-2.6l-5.7-4.3m2.6 9.1c-.40003.133381-.66669.200048-.8.2-.73336.000048-1.80003-.633285-3.2-1.9l-2.9-2.5c.73331.000052 1.33331.000052 1.8 0 .46664.000052.76664.000052.9 0 .19998.000052.33331.000052.4 0 .66664.000052 1.46664.433385 2.4 1.3.93331.80005 1.39997 1.400049 1.4 1.8v1.1m.9 7.3999997c-.33336.40004-.80003.60004-1.4.6-.80003.00004-2.23336-.833293-4.3-2.5l-3.6-2.9999997c.79998.000045 1.43331.000045 1.9 0 .53331.000045.89998.000045 1.1 0 .19998.000045.29998.000045.3 0 .99998.000045 2.46664.6333777 4.4 1.8999997.86664.666709 1.39997 1.666708 1.6 3m-.9-24.3999997c-1.73336.200065-2.83336.300064-3.3.3-.93336.000064-1.73336-.166602-2.4-.5-.86669.800064-1.70002 1.733397-2.5 2.8.99998.466728 1.79998.900061 2.4 1.3l2.3 1.4c.99997-1.133273 2.16664-2.899938 3.5-5.3" font-family="Droid Serif" font-size="100" font-weight="400" style="-inkscape-font-specification:Droid Serif" transform="translate(-89.86018 40.72406)"/>
  <path fill="#10106c" d="m197.779 75.792674-1.9 2.8-7.4-4.4.3 8.1-2.3-.8-.7-9-10.4-6.2v12.3l7.9 5.2-1 2.3-6.9-4.6.1 8.9h-2.9l.1-8.9-6.9 4.6-1-2.3 7.9-5.2v-12.3l-10.4 6.2-.7 9-2.3.8.3-8.1-7.4 4.4-1.8-2.8 7.6-4.3-7.3-3.5 1.5-2.1 8.4 4.1 11.1-6.2-11.1-6.1-8.4 4-1.5-2.1 7.3-3.4-7.6-4.4 1.8-2.7 7.4 4.4-.3-8.2 2.3.7.7 9.2 10.4 6.2v-12.3l-7.9-5.4 1-2.2 6.9 4.5-.1-8.8h2.9l-.1 8.8 6.9-4.5 1 2.2-7.9 5.4v12.3l10.4-6.2.7-9.2 2.3-.7-.3 8.2 7.4-4.4 1.9 2.7-7.6 4.4 7.2 3.4-1.5 2.1-8.5-4-11 6.1 11 6.2 8.5-4.1 1.5 2.1-7.2 3.5 7.6 4.3" font-family="Droid Serif" font-size="100" font-weight="400" style="-inkscape-font-specification:Droid Serif" transform="translate(-136.35387 -.89267)"/>
</svg>