<?xml version="1.0" encoding="UTF-8" standalone="no"?>
<svg xmlns="http://www.w3.org/2000/svg" width="74.699997" height="95.099998">
  <g transform="translate(-186.32857 -334.93363)">
    <path fill="#fff" d="M190.73961 427.67909c-.62568-.27213-1.42926-1.02923-1.78572-1.68245-.61402-1.1252-.65311-3.38782-.74315-43.01698-.075-32.99372.00048-42.1191.35715-43.20123.28262-.85749.90721-1.67813 1.66571-2.18855l1.21352-.81663h64.4316l1.21353.81594c.69338.46621 1.39624 1.34643 1.6398 2.05357.32046.93043.42933 11.56548.43859 42.84478.012 40.47358-.007 41.64886-.68269 43.13844-1.23623 2.72381.75584 2.57759-34.90284 2.56187-26.21025-.0116-31.90514-.0998-32.8455-.50876z"/>
    <path fill="#20208c" d="M240.72857 372.78363c.79994.00004 2.29994.6667 4.5 2 2.19994 1.33337 3.29994 2.3667 3.3 3.1-.00006.2667-.2334.63336-.7 1.1-.40006.4667-.96673 1.53336-1.7 3.2-.66673 1.60002-1.26673 3.80002-1.8 6.6-.86673 5.13335-1.60006 8.56668-2.2 10.3-.60006 1.73334-1.56672 3.46667-2.9 5.2-1.20005 1.46667-2.03339 2.2-2.5 2.2-.60005 0-1.00005-.23333-1.2-.7l-2.2-6.6c-.73338-1.59999-2.30005-2.39999-4.7-2.4-.73338.00001-7.70004.56668-20.9 1.7-.13336.0667-.26669.23334-.4.5-.0667.20001-.26669.63334-.6 1.3-.26669.66667-.70002 1.40001-1.3 2.2-.66669-2.46666-1.26669-5.46666-1.8-9-.53335-3.53332-1.13335-6.46665-1.8-8.8-.66668-2.39997-1.66668-4.63331-3-6.7l6.3.5c.0667.00003.13331.00003.2 0 1.13331.00003 4.03331-.4333 8.7-1.3v-7.2c-.00003-.46663-.23336-1.19996-.7-2.2-.40003-.99996-.73336-1.53329-1-1.6-.00003-.0666-.43336-.13329-1.3-.2-.80003-.13329-1.83336-.36662-3.1-.7-1.20002-.39996-2.16669-.99996-2.9-1.8 3.19998.00004 7.69997-.59996 13.5-1.8l15.4-3.2c2.73328.00005 4.09995.53338 4.1 1.6-.00005.46671-.63339 1.00005-1.9 1.6-1.20005.53338-2.26672.90005-3.2 1.1-1.66671.20004-4.16671.63338-7.5 1.3.93329 1.06671 1.96662 2.46671 3.1 4.2l-1.9 6.3c.0666.0667.33329.10003.8.1l13.3-1.9m-17.1 2.6v-11.2l-9.1 1.4c1.9333 1.33337 2.89997 2.30004 2.9 2.9v7.8h1.5c.46663.00003 2.0333-.29997 4.7-.9m13.8 22.8c.93328-1.19999 1.76661-3.63332 2.5-7.3.79994-3.66665 1.19994-6.79998 1.2-9.4-.00006-2.46664-.33339-3.9333-1-4.4-.53339-.39997-2.13339-.59997-4.8-.6h-9.1v7.2c1.19996.66669 2.03329 1.00002 2.5 1 .19995.00002.63329-.0666 1.3-.2.73329-.19998 1.19995-.29998 1.4-.3 1.86662.00002 3.03328.73336 3.5 2.2-1.13338.86669-2.70005 1.30002-4.7 1.3-2.60004.00002-4.50004-.49998-5.7-1.5-1.13337-.99998-1.70004-2.73331-1.7-5.2-.00004-1.26664.1-2.46664.3-3.6-1.2667.2667-3.2667.53336-6 .8-.33337 2.06669-.60003 3.63336-.8 4.7-.20003 1.00002-.5667 2.20002-1.1 3.6-.53336 1.40002-1.23336 2.53335-2.1 3.4-.80003.86668-1.83336 1.56668-3.1 2.1v-.6c.39997-.66665 1.16664-2.36665 2.3-5.1 1.1333-2.73331 1.69997-4.29997 1.7-4.7v-2.5l-8.7 1.4v.9c-.00002.13336.1.76669.3 1.9l.4 2.4c.39998 4.26668.66664 7.80001.8 10.6l23.4-2.4c.93329.00001 1.73329.20001 2.4.6.73328.40001 1.23328.80001 1.5 1.2.33328.33335.96662 1.16668 1.9 2.5h1.4" font-family="Droid Serif" font-size="100" font-weight="400" style="-inkscape-font-specification:Droid Serif"/>
    <path d="M261.02857 422.83363c-.00008 4.79998-2.26674 7.19998-6.8 7.2h-61.1c-4.53334-.00002-6.8-2.40002-6.8-7.2v-80.7c0-4.79993 2.26666-7.19993 6.8-7.2h61.1c4.53326.00007 6.79992 2.40007 6.8 7.2v80.7m-1.7 0v-80.7c-.00008-3.6666-1.70007-5.49993-5.1-5.5h-61.1c-3.40001.00007-5.1 1.8334-5.1 5.5v80.7c0 3.73331 1.69999 5.59998 5.1 5.6h61.1c3.39993-.00002 5.09992-1.86669 5.1-5.6" font-family="Droid Serif" font-size="100" font-weight="400" style="-inkscape-font-specification:Droid Serif"/>
  </g>
</svg>